<svg xmlns="http://www.w3.org/2000/svg" xmlns:xlink="http://www.w3.org/1999/xlink" version="1.1" width="250" height="50" viewBox="0 0 250 50" xml:space="preserve">
<desc>Created with Fabric.js 3.5.0</desc>
<defs>
</defs>
<rect x="0" y="0" width="100%" height="100%" fill="rgba(255,255,255,0)"/>
<g transform="matrix(1 0 0 1 123.9999 27.49)" style="" id="409708">
		
<path xml:space="preserve" font-family="Roboto" font-size="46" font-style="normal" font-weight="bold" style="stroke: none; stroke-width: 1; stroke-dasharray: none; stroke-linecap: butt; stroke-dashoffset: 0; stroke-linejoin: miter; stroke-miterlimit: 4; is-custom-font: none; font-file-url: none; fill: rgb(204,220,13); fill-rule: nonzero; opacity: 1; white-space: pre;" d="M-98.94-4.03L-111.74 0.57L-98.94 5.08L-98.94 11.37L-118.28 3.18L-118.28-2.13L-98.94-10.32L-98.94-4.03ZM-93.73-9.85L-87.62-9.85L-87.42-7.04Q-84.81-10.30-80.43-10.30L-80.43-10.30Q-76.57-10.30-74.68-8.03Q-72.80-5.76-72.75-1.25L-72.75-1.25L-72.75 14.45L-79.24 14.45L-79.24-1.09Q-79.24-3.16-80.14-4.09Q-81.04-5.02-83.13-5.02L-83.13-5.02Q-85.87-5.02-87.24-2.69L-87.24-2.69L-87.24 14.45L-93.73 14.45L-93.73-9.85ZM-60.98-20.05L-60.98 14.45L-67.50 14.45L-67.50-20.05L-60.98-20.05ZM-38.92-9.85L-34.50 5.62L-31.31-9.85L-25.04-9.85L-31.24 14.45L-36.68 14.45L-41.28-0.85L-45.89 14.45L-51.30 14.45L-57.50-9.85L-51.23-9.85L-48.07 5.60L-43.62-9.85L-38.92-9.85ZM-7.75-18.25L-19.79 17.26L-24.62 17.26L-12.58-18.25L-7.75-18.25ZM-4.45 5.13L8.60 0.50L-4.45-4.06L-4.45-10.30L15.12-2.10L15.12 3.18L-4.45 11.40L-4.45 5.13Z"/><path xml:space="preserve" font-family="Roboto" font-size="46" font-style="normal" font-weight="bold" style="stroke: none; stroke-width: 1; stroke-dasharray: none; stroke-linecap: butt; stroke-dashoffset: 0; stroke-linejoin: miter; stroke-miterlimit: 4; is-custom-font: none; font-file-url: none; fill: rgb(204,220,13); fill-rule: nonzero; opacity: 1; white-space: pre;" d="M51.30 3.56L58.04 3.56Q57.66 8.84 54.14 11.87Q50.63 14.90 44.88 14.90L44.88 14.90Q38.59 14.90 34.98 10.67Q31.38 6.43 31.38-0.96L31.38-0.96L31.38-2.96Q31.38-7.67 33.04-11.27Q34.70-14.86 37.79-16.78Q40.88-18.70 44.97-18.70L44.97-18.70Q50.63-18.70 54.09-15.67Q57.54-12.64 58.08-7.16L58.08-7.16L51.35-7.16Q51.10-10.32 49.58-11.75Q48.07-13.18 44.97-13.18L44.97-13.18Q41.60-13.18 39.92-10.76Q38.25-8.35 38.21-3.27L38.21-3.27L38.21-0.80Q38.21 4.50 39.81 6.95Q41.42 9.40 44.88 9.40L44.88 9.40Q48.00 9.40 49.54 7.97Q51.08 6.54 51.30 3.56L51.30 3.56ZM80.46-18.25L87.22-18.25L87.22 3.29Q87.22 8.66 83.86 11.78Q80.50 14.90 74.68 14.90L74.68 14.90Q68.96 14.90 65.59 11.87Q62.22 8.84 62.15 3.53L62.15 3.53L62.15-18.25L68.89-18.25L68.89 3.33Q68.89 6.54 70.43 8.02Q71.96 9.49 74.68 9.49L74.68 9.49Q80.37 9.49 80.46 3.51L80.46 3.51L80.46-18.25ZM105.39 2.93L99.48 2.93L99.48 14.45L92.74 14.45L92.74-18.25L105.50-18.25Q109.18-18.25 111.98-16.91Q114.78-15.56 116.28-13.08Q117.79-10.59 117.79-7.43L117.79-7.43Q117.79-2.62 114.49 0.15Q111.20 2.93 105.39 2.93L105.39 2.93ZM99.48-12.79L99.48-2.53L105.50-2.53Q108.17-2.53 109.58-3.79Q110.98-5.05 110.98-7.38L110.98-7.38Q110.98-9.78 109.56-11.27Q108.15-12.75 105.66-12.79L105.66-12.79L99.48-12.79Z"/></g>
</svg>